<svg width="512" height="512" viewBox="0 0 512 512" fill="none" xmlns="http://www.w3.org/2000/svg">
<path d="M296 416.19C290.884 416.187 285.903 414.543 281.79 411.5L281.13 410.99L189.67 335.99H120C113.635 335.99 107.53 333.461 103.029 328.961C98.5286 324.46 96 318.355 96 311.99V200C96 193.635 98.5286 187.53 103.029 183.029C107.53 178.529 113.635 176 120 176H189.65L281.11 101L281.77 100.49C285.346 97.8573 289.581 96.2681 294.006 95.8993C298.431 95.5304 302.872 96.3963 306.834 98.4007C310.796 100.405 314.124 103.469 316.449 107.253C318.773 111.036 320.003 115.39 320 119.83V392.17C320 398.535 317.471 404.64 312.971 409.141C308.47 413.641 302.365 416.17 296 416.17V416.19ZM384 336C381.271 335.999 378.588 335.299 376.206 333.968C373.823 332.637 371.821 330.719 370.389 328.396C368.957 326.073 368.142 323.423 368.024 320.696C367.905 317.97 368.485 315.259 369.71 312.82C379.2 293.92 384.01 274.82 384.01 256C384.01 236.64 379.35 218.08 369.76 199.27C367.923 195.501 367.638 191.161 368.968 187.185C370.298 183.208 373.136 179.912 376.871 178.007C380.606 176.101 384.94 175.738 388.94 176.995C392.94 178.253 396.287 181.03 398.26 184.73C410.2 208.16 416 231.47 416 256C416 279.83 410 303.78 398.3 327.18C396.969 329.831 394.926 332.06 392.401 333.618C389.876 335.176 386.967 336 384 336Z" fill="black"/>
</svg>
