<svg width="512" height="512" viewBox="0 0 512 512" fill="none" xmlns="http://www.w3.org/2000/svg">
<path d="M416 64H400V48.45C400 39.84 393.38 32.45 384.77 32.02C382.607 31.9158 380.445 32.2518 378.415 33.0079C376.385 33.7639 374.53 34.9241 372.962 36.4182C371.394 37.9123 370.146 39.7092 369.293 41.7001C368.44 43.6909 368 45.8341 368 48V64H144V48.45C144 39.84 137.38 32.45 128.77 32.02C126.607 31.9158 124.445 32.2518 122.415 33.0079C120.385 33.7639 118.53 34.9241 116.962 36.4182C115.394 37.9123 114.146 39.7092 113.293 41.7001C112.44 43.6909 112 45.8341 112 48V64H96C79.0261 64 62.7475 70.7428 50.7452 82.7452C38.7428 94.7475 32 111.026 32 128V140C32 141.061 32.4214 142.078 33.1716 142.828C33.9217 143.579 34.9391 144 36 144H476C477.061 144 478.078 143.579 478.828 142.828C479.579 142.078 480 141.061 480 140V128C480 111.026 473.257 94.7475 461.255 82.7452C449.253 70.7428 432.974 64 416 64ZM477 176H35C34.2044 176 33.4413 176.316 32.8787 176.879C32.3161 177.441 32 178.204 32 179V416C32 432.974 38.7428 449.253 50.7452 461.255C62.7475 473.257 79.0261 480 96 480H416C432.974 480 449.253 473.257 461.255 461.255C473.257 449.253 480 432.974 480 416V179C480 178.204 479.684 177.441 479.121 176.879C478.559 176.316 477.796 176 477 176ZM224 307.43C224 315.007 220.99 322.274 215.632 327.632C210.274 332.99 203.007 336 195.43 336H124.57C116.993 336 109.726 332.99 104.368 327.632C99.01 322.274 96 315.007 96 307.43V236.57C96 228.993 99.01 221.726 104.368 216.368C109.726 211.01 116.993 208 124.57 208H195.43C203.007 208 210.274 211.01 215.632 216.368C220.99 221.726 224 228.993 224 236.57V307.43Z" fill="black"/>
</svg>
