<svg width="626" height="626" viewBox="0 0 626 626" fill="none" xmlns="http://www.w3.org/2000/svg">
<circle cx="313" cy="313" r="309" fill="#3C76F3" stroke="white" stroke-width="8"/>
<path d="M471.431 157.353C471.3 156.719 470.991 156.136 470.54 155.671C470.09 155.207 469.516 154.88 468.886 154.73C426.903 144.465 329.899 181.044 277.344 233.578C267.97 242.876 259.425 252.973 251.804 263.755C235.598 262.321 219.391 263.518 205.578 269.539C166.606 286.692 155.259 331.449 152.098 350.702C151.919 351.756 151.986 352.837 152.295 353.86C152.605 354.884 153.147 355.821 153.88 356.599C154.613 357.377 155.517 357.975 156.519 358.344C157.522 358.714 158.597 358.846 159.66 358.73L222.244 351.828C222.288 356.546 222.573 361.259 223.097 365.948C223.412 369.205 224.857 372.248 227.182 374.55L251.417 398.728C253.721 401.05 256.763 402.495 260.019 402.813C264.682 403.335 269.369 403.62 274.061 403.666L267.194 466.171C267.079 467.233 267.213 468.308 267.583 469.31C267.953 470.312 268.551 471.215 269.328 471.948C270.106 472.68 271.043 473.223 272.066 473.532C273.088 473.842 274.169 473.911 275.222 473.733C294.439 470.651 339.275 459.304 356.328 420.332C362.349 406.519 363.582 390.391 362.191 374.263C372.999 366.643 383.123 358.095 392.447 348.717C445.167 296.261 481.538 201.422 471.431 157.353ZM339.849 286.14C335.034 281.329 331.755 275.199 330.426 268.524C329.097 261.849 329.777 254.93 332.38 248.642C334.984 242.354 339.393 236.979 345.052 233.197C350.711 229.416 357.364 227.397 364.169 227.397C370.975 227.397 377.628 229.416 383.287 233.197C388.945 236.979 393.355 242.354 395.959 248.642C398.562 254.93 399.242 261.849 397.913 268.524C396.584 275.199 393.304 281.329 388.49 286.14C385.298 289.337 381.507 291.873 377.334 293.604C373.161 295.334 368.687 296.225 364.169 296.225C359.652 296.225 355.178 295.334 351.005 293.604C346.832 291.873 343.041 289.337 339.849 286.14Z" fill="white"/>
<path d="M249.769 416.239C245.841 420.174 239.54 421.708 231.956 423.02C214.918 425.923 199.872 411.2 202.933 393.975C204.102 387.445 207.556 378.292 209.707 376.141C210.177 375.68 210.49 375.083 210.601 374.434C210.712 373.785 210.616 373.118 210.327 372.527C210.037 371.936 209.568 371.451 208.987 371.141C208.407 370.831 207.743 370.712 207.091 370.801C197.563 371.967 188.699 376.287 181.909 383.073C165.058 399.939 163.466 462.523 163.466 462.523C163.466 462.523 226.086 460.931 242.938 444.065C249.745 437.281 254.07 428.404 255.216 418.862C255.482 415.866 251.833 414.081 249.769 416.239Z" fill="white"/>
</svg>
