<svg width="448" height="448" viewBox="0 0 448 448" fill="none" xmlns="http://www.w3.org/2000/svg">
<path d="M384 31.9985H368V16.4485C368 7.83854 361.38 0.44854 352.77 0.0185398C350.607 -0.0856922 348.445 0.250381 346.415 1.0064C344.385 1.76241 342.53 2.92264 340.962 4.41675C339.394 5.91087 338.146 7.70777 337.293 9.69859C336.44 11.6894 336 13.8327 336 15.9985V31.9985H112V16.4485C112 7.83854 105.38 0.44854 96.77 0.0185398C94.6067 -0.0856922 92.4447 0.250381 90.415 1.0064C88.3854 1.76241 86.5304 2.92264 84.9624 4.41675C83.3944 5.91087 82.1461 7.70777 81.2931 9.69859C80.4401 11.6894 80.0002 13.8327 80 15.9985V31.9985H64C47.0261 31.9985 30.7475 38.7414 18.7452 50.7437C6.74284 62.746 0 79.0247 0 95.9985V107.999C0 109.059 0.421428 110.077 1.17157 110.827C1.92172 111.577 2.93913 111.999 4 111.999H444C445.061 111.999 446.078 111.577 446.828 110.827C447.579 110.077 448 109.059 448 107.999V95.9985C448 79.0247 441.257 62.746 429.255 50.7437C417.252 38.7414 400.974 31.9985 384 31.9985ZM445 143.999H3C2.20435 143.999 1.44129 144.315 0.878681 144.877C0.316072 145.44 0 146.203 0 146.999V383.999C0 400.972 6.74284 417.251 18.7452 429.253C30.7475 441.256 47.0261 447.999 64 447.999H384C400.974 447.999 417.252 441.256 429.255 429.253C441.257 417.251 448 400.972 448 383.999V146.999C448 146.203 447.684 145.44 447.121 144.877C446.559 144.315 445.796 143.999 445 143.999ZM192 275.429C192 283.006 188.99 290.273 183.632 295.631C178.274 300.988 171.007 303.999 163.43 303.999H92.57C84.9928 303.999 77.7259 300.988 72.368 295.631C67.01 290.273 64 283.006 64 275.429V204.569C64 196.991 67.01 189.724 72.368 184.367C77.7259 179.009 84.9928 175.999 92.57 175.999H163.43C171.007 175.999 178.274 179.009 183.632 184.367C188.99 189.724 192 196.991 192 204.569V275.429Z" fill="white"/>
</svg>
