<svg width="512" height="512" viewBox="0 0 512 512" fill="none" xmlns="http://www.w3.org/2000/svg">
<path d="M150.38 253.68L172.32 230.38L183.97 241.38C257.6 310.74 331.48 352.94 418.42 374.45C430.15 342.45 431.19 307.23 421.06 272.87C407.62 227.28 376.32 187.56 330.57 158.01C290.32 132.01 253.97 125.92 215.48 119.47C194.36 115.93 172.48 112.27 148.63 105.04C104.85 91.76 58.94 52.3 58.48 51.91L33.4 30.15L32 63.33C31.9 65.89 29.58 126.9 46.22 211.1C63.8 300.1 96.46 366.95 143.29 409.73C181.29 444.42 230.91 463.63 280.22 463.63C289.519 463.636 298.805 462.944 308 461.56C349.72 455.24 384.43 434.29 404 403.81C314.5 380.53 238.05 336.26 162 264.65L150.38 253.68Z" fill="black"/>
<path d="M467.43 384.19C450.6 381.6 434.3 378.35 418.43 374.42C415.163 383.326 411.104 391.92 406.3 400.1C405.56 401.35 404.79 402.59 404.01 403.81C423.309 408.808 442.851 412.813 462.56 415.81L478.38 418.25L483.24 386.62L467.43 384.19Z" fill="black"/>
</svg>
