<svg width="512" height="512" viewBox="0 0 512 512" fill="none" xmlns="http://www.w3.org/2000/svg">
<path d="M256 96V56M256 456V416M416 256H456M56 256H96M256 112C227.519 112 199.679 120.445 175.998 136.268C152.317 152.091 133.86 174.581 122.961 200.894C112.062 227.206 109.211 256.16 114.767 284.093C120.323 312.026 134.038 337.685 154.177 357.823C174.315 377.962 199.974 391.677 227.907 397.233C255.84 402.789 284.794 399.938 311.106 389.039C337.419 378.14 359.909 359.683 375.732 336.002C391.555 312.321 400 284.481 400 256C400 217.809 384.829 181.182 357.823 154.177C330.818 127.171 294.191 112 256 112Z" stroke="black" stroke-width="48" stroke-linecap="round" stroke-linejoin="round"/>
<path d="M236.512 334C235.636 334.001 234.771 333.809 233.977 333.44C233.183 333.07 232.479 332.53 231.915 331.859C231.352 331.188 230.942 330.402 230.714 329.555C230.487 328.708 230.447 327.822 230.599 326.958V326.922L239.782 276.437H204.227C203.24 276.437 202.273 276.157 201.438 275.63C200.604 275.103 199.935 274.35 199.51 273.459C199.085 272.567 198.92 271.573 199.036 270.592C199.151 269.611 199.542 268.682 200.163 267.914L271.767 179.3C272.582 178.264 273.714 177.524 274.988 177.193C276.263 176.862 277.611 176.958 278.827 177.467C280.042 177.975 281.057 178.868 281.718 180.009C282.378 181.15 282.647 182.476 282.483 183.784C282.483 183.882 282.457 183.977 282.441 184.075L273.224 234.573H308.773C309.76 234.574 310.727 234.853 311.562 235.38C312.396 235.908 313.065 236.66 313.49 237.552C313.915 238.444 314.08 239.438 313.964 240.419C313.849 241.4 313.458 242.328 312.837 243.097L241.223 331.711C240.66 332.422 239.945 332.998 239.129 333.394C238.313 333.791 237.419 333.998 236.512 334Z" fill="black"/>
</svg>
