<svg width="512" height="512" viewBox="0 0 512 512" fill="none" xmlns="http://www.w3.org/2000/svg">
<path d="M340 480H106C76.5 480 51.08 472.17 32.47 457.36C11.23 440.44 0 415.35 0 384.8C0 358.14 10.08 335 29.14 317.89C44.38 304.21 65.31 294.68 88.14 291.05C88.2 291.05 88.22 291.05 88.23 291C94.67 252 112.06 218.91 138.54 195.32C164.301 172.472 197.567 159.9 232 160C262.23 160 290.48 169.39 313.71 187.17C334.019 202.934 349.691 223.893 359.07 247.83C388.48 252.65 413.79 264.94 432.26 283.37C453 304.11 464 331.71 464 363.2C464 396.05 450.87 426.07 427 447.72C404.11 468.54 373.2 480 340 480ZM381.5 219.89C397.492 223.974 412.801 230.375 426.94 238.89C433.458 219.727 433.753 198.993 427.781 179.653C421.809 160.312 409.877 143.354 393.689 131.202C377.502 119.049 357.887 112.325 337.648 111.988C317.409 111.652 297.582 117.722 281 129.33C279.1 130.663 277.253 132.063 275.46 133.53C296.391 139.002 316.018 148.6 333.19 161.76C353.346 177.375 369.836 197.217 381.5 219.89ZM448 192H512V224H448V192ZM320 32H352V96H320V32ZM255.35 129.63L267.8 117.18L223.18 72.55L200.55 95.18L233.72 128.35H234.32C241.35 128.347 248.373 128.774 255.35 129.63ZM404.203 117.17L448.829 72.545L471.456 95.173L426.831 139.798L404.203 117.17Z" fill="white"/>
</svg>
