<svg width="22" height="22" viewBox="0 0 22 22" fill="none" xmlns="http://www.w3.org/2000/svg">
<path d="M11 4.125V2.40625M11 19.5938V17.875M17.875 11H19.5938M2.40625 11H4.125M11 4.8125C9.77623 4.8125 8.57994 5.17539 7.56241 5.85528C6.54488 6.53517 5.75181 7.50153 5.2835 8.63215C4.81518 9.76276 4.69265 11.0069 4.93139 12.2071C5.17014 13.4074 5.75944 14.5099 6.62478 15.3752C7.49011 16.2406 8.59262 16.8299 9.79288 17.0686C10.9931 17.3074 12.2372 17.1848 13.3679 16.7165C14.4985 16.2482 15.4648 15.4551 16.1447 14.4376C16.8246 13.4201 17.1875 12.2238 17.1875 11C17.1875 9.35897 16.5356 7.78516 15.3752 6.62478C14.2148 5.4644 12.641 4.8125 11 4.8125Z" stroke="white" stroke-width="2" stroke-linecap="round" stroke-linejoin="round"/>
<path d="M10.1626 14.3516C10.125 14.3516 10.0878 14.3434 10.0537 14.3275C10.0196 14.3116 9.98933 14.2884 9.96512 14.2596C9.9409 14.2307 9.92329 14.1969 9.91351 14.1606C9.90373 14.1242 9.90204 14.0861 9.90853 14.049V14.0474L10.3031 11.8782H8.77537C8.73296 11.8782 8.69142 11.8661 8.65556 11.8435C8.61969 11.8208 8.59096 11.7885 8.57269 11.7502C8.55442 11.7119 8.54736 11.6692 8.55232 11.627C8.55729 11.5848 8.57407 11.5449 8.60073 11.5119L11.6775 7.7043C11.7125 7.6598 11.7611 7.628 11.8159 7.61378C11.8707 7.59955 11.9286 7.60368 11.9808 7.62553C12.033 7.64738 12.0767 7.68574 12.1051 7.73476C12.1334 7.78378 12.145 7.84076 12.1379 7.89697C12.1379 7.90119 12.1368 7.90527 12.1361 7.90948L11.7401 10.0793H13.2676C13.31 10.0793 13.3515 10.0914 13.3874 10.114C13.4233 10.1367 13.452 10.169 13.4703 10.2073C13.4885 10.2456 13.4956 10.2883 13.4906 10.3305C13.4857 10.3727 13.4689 10.4125 13.4422 10.4456L10.3651 14.2532C10.3409 14.2838 10.3101 14.3085 10.2751 14.3255C10.24 14.3426 10.2016 14.3515 10.1626 14.3516Z" fill="white"/>
</svg>
