<svg width="448" height="448" viewBox="0 0 448 448" fill="none" xmlns="http://www.w3.org/2000/svg">
<path d="M297.5 420H92.75C66.9375 420 44.695 413.149 28.4113 400.19C9.82625 385.385 0 363.431 0 336.7C0 313.372 8.82 293.125 25.4975 278.154C38.8325 266.184 57.1462 257.845 77.1225 254.669C77.175 254.669 77.1925 254.669 77.2013 254.625C82.8363 220.5 98.0525 191.546 121.222 170.905C143.763 150.913 172.871 139.913 203 140C229.451 140 254.17 148.216 274.496 163.774C292.266 177.568 305.979 195.906 314.186 216.851C339.92 221.069 362.066 231.822 378.228 247.949C396.375 266.096 406 290.246 406 317.8C406 346.544 394.511 372.811 373.625 391.755C353.596 409.973 326.55 420 297.5 420ZM333.812 192.404C347.806 195.977 361.201 201.578 373.573 209.029C379.276 192.261 379.534 174.119 374.308 157.196C369.083 140.273 358.642 125.435 344.478 114.801C330.314 104.168 313.151 98.284 295.442 97.9899C277.733 97.6957 260.385 103.007 245.875 113.164C244.213 114.33 242.597 115.555 241.027 116.839C259.342 121.627 276.516 130.025 291.541 141.54C309.178 155.203 323.607 172.565 333.812 192.404ZM392 168H448V196H392V168ZM280 28H308V84H280V28ZM223.431 113.426L234.325 102.533L195.282 63.4813L175.481 83.2825L204.505 112.306H205.03C211.181 112.303 217.326 112.677 223.431 113.426ZM353.678 102.524L392.725 63.4769L412.524 83.2764L373.477 122.323L353.678 102.524Z" fill="#3C76F3"/>
</svg>
